<svg width="24" height="18" viewBox="0 0 24 18" fill="none" xmlns="http://www.w3.org/2000/svg">
<path d="M22.5002 15C22.5002 15.3978 22.3421 15.7794 22.0608 16.0607C21.7795 16.342 21.398 16.5 21.0002 16.5H3.00018C2.60236 16.5 2.22083 16.342 1.93952 16.0607C1.65822 15.7794 1.50018 15.3978 1.50018 15V6C1.50018 5.60218 1.65822 5.22065 1.93952 4.93934C2.22083 4.65804 2.60236 4.5 3.00018 4.5H4.75818C5.95104 4.49935 7.09483 4.02511 7.93818 3.1815L9.18318 1.9395C9.46369 1.65891 9.84393 1.50088 10.2407 1.5H13.7567C14.1545 1.50009 14.5359 1.65818 14.8172 1.9395L16.0592 3.1815C16.4771 3.59957 16.9734 3.9312 17.5195 4.15743C18.0657 4.38367 18.651 4.50007 19.2422 4.5H21.0002C21.398 4.5 21.7795 4.65804 22.0608 4.93934C22.3421 5.22065 22.5002 5.60218 22.5002 6V15ZM3.00018 3C2.20453 3 1.44147 3.31607 0.878863 3.87868C0.316254 4.44129 0.000183105 5.20435 0.000183105 6L0.000183105 15C0.000183105 15.7957 0.316254 16.5587 0.878863 17.1213C1.44147 17.6839 2.20453 18 3.00018 18H21.0002C21.7958 18 22.5589 17.6839 23.1215 17.1213C23.6841 16.5587 24.0002 15.7957 24.0002 15V6C24.0002 5.20435 23.6841 4.44129 23.1215 3.87868C22.5589 3.31607 21.7958 3 21.0002 3H19.2422C18.4466 2.99983 17.6837 2.68365 17.1212 2.121L15.8792 0.879C15.3167 0.316352 14.5538 0.000169912 13.7582 0H10.2422C9.4466 0.000169912 8.68366 0.316352 8.12118 0.879L6.87918 2.121C6.3167 2.68365 5.55377 2.99983 4.75818 3H3.00018Z" fill="white"/>
<path d="M12.0001 13.5C11.0055 13.5 10.0517 13.1049 9.34841 12.4017C8.64515 11.6984 8.25006 10.7446 8.25006 9.75C8.25006 8.75544 8.64515 7.80161 9.34841 7.09835C10.0517 6.39509 11.0055 6 12.0001 6C12.9946 6 13.9484 6.39509 14.6517 7.09835C15.355 7.80161 15.7501 8.75544 15.7501 9.75C15.7501 10.7446 15.355 11.6984 14.6517 12.4017C13.9484 13.1049 12.9946 13.5 12.0001 13.5ZM12.0001 15C13.3924 15 14.7278 14.4469 15.7124 13.4623C16.6969 12.4777 17.2501 11.1424 17.2501 9.75C17.2501 8.35761 16.6969 7.02226 15.7124 6.03769C14.7278 5.05312 13.3924 4.5 12.0001 4.5C10.6077 4.5 9.27231 5.05312 8.28775 6.03769C7.30318 7.02226 6.75006 8.35761 6.75006 9.75C6.75006 11.1424 7.30318 12.4777 8.28775 13.4623C9.27231 14.4469 10.6077 15 12.0001 15ZM4.50006 6.75C4.50006 6.94891 4.42104 7.13968 4.28039 7.28033C4.13974 7.42098 3.94897 7.5 3.75006 7.5C3.55115 7.5 3.36038 7.42098 3.21973 7.28033C3.07908 7.13968 3.00006 6.94891 3.00006 6.75C3.00006 6.55109 3.07908 6.36032 3.21973 6.21967C3.36038 6.07902 3.55115 6 3.75006 6C3.94897 6 4.13974 6.07902 4.28039 6.21967C4.42104 6.36032 4.50006 6.55109 4.50006 6.75Z" fill="white"/>
</svg>
